# xmcd
#
# Track frame offsets: 
#        150
#        16160
#        35923
#        55205
#        76463
#        93490
#        113463
#        133023
#
# Disc length: 1996 seconds
#
# Revision: 1
# Processed by: cddbd v1.5.2PL0 Copyright (c) Steve Scherf et al.
# Submitted via: ExactAudioCopy v0.99pb5
#
DISCID=6007ca08
DTITLE=Willy Chirino - Brillantes
DYEAR=1994
DGENRE=Merengue
TTITLE0=Yo soy un barco
TTITLE1=El cantor del pueblo
TTITLE2=Sin fuerza de voluntad
TTITLE3=La Noche Perfecta
TTITLE4=Colgando de un hilito
TTITLE5=No deberia ser asi
TTITLE6=Muevete, muevete
TTITLE7=Somos
EXTD=YEAR: 1994
EXTT0=
EXTT1=
EXTT2=
EXTT3=
EXTT4=
EXTT5=
EXTT6=
EXTT7=
PLAYORDER=
